<?xml version="1.0" encoding="UTF-8" standalone="no"?>
<svg width="1920" height="1080" viewBox="0 0 1920 1080" xmlns="http://www.w3.org/2000/svg">
  <!-- Background gradient -->
  <defs>
    <linearGradient id="bg-gradient" x1="0%" y1="0%" x2="0%" y2="100%">
      <stop offset="0%" style="stop-color:#192a56;stop-opacity:1" />
      <stop offset="100%" style="stop-color:#273c75;stop-opacity:1" />
    </linearGradient>
  </defs>
  
  <!-- Background -->
  <rect width="100%" height="100%" fill="url(#bg-gradient)" />
  
  <!-- Grid pattern -->
  <g stroke="rgba(255, 255, 255, 0.1)" stroke-width="2">
    <!-- Vertical lines -->
    <line x1="100" y1="0" x2="100" y2="1080" />
    <line x1="200" y1="0" x2="200" y2="1080" />
    <line x1="300" y1="0" x2="300" y2="1080" />
    <line x1="400" y1="0" x2="400" y2="1080" />
    <line x1="500" y1="0" x2="500" y2="1080" />
    <line x1="600" y1="0" x2="600" y2="1080" />
    <line x1="700" y1="0" x2="700" y2="1080" />
    <line x1="800" y1="0" x2="800" y2="1080" />
    <line x1="900" y1="0" x2="900" y2="1080" />
    <line x1="1000" y1="0" x2="1000" y2="1080" />
    <line x1="1100" y1="0" x2="1100" y2="1080" />
    <line x1="1200" y1="0" x2="1200" y2="1080" />
    <line x1="1300" y1="0" x2="1300" y2="1080" />
    <line x1="1400" y1="0" x2="1400" y2="1080" />
    <line x1="1500" y1="0" x2="1500" y2="1080" />
    <line x1="1600" y1="0" x2="1600" y2="1080" />
    <line x1="1700" y1="0" x2="1700" y2="1080" />
    <line x1="1800" y1="0" x2="1800" y2="1080" />
    <line x1="1900" y1="0" x2="1900" y2="1080" />
    
    <!-- Horizontal lines -->
    <line x1="0" y1="100" x2="1920" y2="100" />
    <line x1="0" y1="200" x2="1920" y2="200" />
    <line x1="0" y1="300" x2="1920" y2="300" />
    <line x1="0" y1="400" x2="1920" y2="400" />
    <line x1="0" y1="500" x2="1920" y2="500" />
    <line x1="0" y1="600" x2="1920" y2="600" />
    <line x1="0" y1="700" x2="1920" y2="700" />
    <line x1="0" y1="800" x2="1920" y2="800" />
    <line x1="0" y1="900" x2="1920" y2="900" />
    <line x1="0" y1="1000" x2="1920" y2="1000" />
  </g>
  
  <!-- Warehouse shelves -->
  <g>
    <!-- Shelf 1 -->
    <rect x="310" y="310" width="200" height="600" fill="rgba(0,0,0,0.3)" />
    <rect x="300" y="300" width="200" height="600" fill="#34495e" />
    <rect x="300" y="450" width="200" height="10" fill="#2c3e50" />
    <rect x="300" y="600" width="200" height="10" fill="#2c3e50" />
    <rect x="300" y="750" width="200" height="10" fill="#2c3e50" />
    
    <!-- Shelf 2 -->
    <rect x="610" y="310" width="200" height="600" fill="rgba(0,0,0,0.3)" />
    <rect x="600" y="300" width="200" height="600" fill="#34495e" />
    <rect x="600" y="450" width="200" height="10" fill="#2c3e50" />
    <rect x="600" y="600" width="200" height="10" fill="#2c3e50" />
    <rect x="600" y="750" width="200" height="10" fill="#2c3e50" />
    
    <!-- Shelf 3 -->
    <rect x="910" y="310" width="200" height="600" fill="rgba(0,0,0,0.3)" />
    <rect x="900" y="300" width="200" height="600" fill="#34495e" />
    <rect x="900" y="450" width="200" height="10" fill="#2c3e50" />
    <rect x="900" y="600" width="200" height="10" fill="#2c3e50" />
    <rect x="900" y="750" width="200" height="10" fill="#2c3e50" />
    
    <!-- Shelf 4 -->
    <rect x="1210" y="310" width="200" height="600" fill="rgba(0,0,0,0.3)" />
    <rect x="1200" y="300" width="200" height="600" fill="#34495e" />
    <rect x="1200" y="450" width="200" height="10" fill="#2c3e50" />
    <rect x="1200" y="600" width="200" height="10" fill="#2c3e50" />
    <rect x="1200" y="750" width="200" height="10" fill="#2c3e50" />
    
    <!-- Shelf 5 -->
    <rect x="1510" y="310" width="200" height="600" fill="rgba(0,0,0,0.3)" />
    <rect x="1500" y="300" width="200" height="600" fill="#34495e" />
    <rect x="1500" y="450" width="200" height="10" fill="#2c3e50" />
    <rect x="1500" y="600" width="200" height="10" fill="#2c3e50" />
    <rect x="1500" y="750" width="200" height="10" fill="#2c3e50" />
  </g>
  
  <!-- Light effects -->
  <g>
    <circle cx="300" cy="100" r="150" fill="rgba(255,255,255,0.15)" />
    <circle cx="800" cy="150" r="120" fill="rgba(255,255,255,0.1)" />
    <circle cx="1300" cy="80" r="100" fill="rgba(255,255,255,0.12)" />
    <circle cx="1700" cy="120" r="130" fill="rgba(255,255,255,0.08)" />
  </g>
  
  <!-- Forklifts -->
  <g>
    <!-- Forklift 1 -->
    <rect x="400" y="800" width="100" height="50" fill="#f1c40f" />
    <rect x="460" y="775" width="40" height="25" fill="#2c3e50" />
    <rect x="350" y="835" width="50" height="5" fill="#7f8c8d" />
    <rect x="350" y="820" width="50" height="5" fill="#7f8c8d" />
    <circle cx="420" cy="850" r="15" fill="#2c3e50" />
    <circle cx="480" cy="850" r="15" fill="#2c3e50" />
    
    <!-- Forklift 2 -->
    <rect x="1200" y="600" width="100" height="50" fill="#f1c40f" />
    <rect x="1260" y="575" width="40" height="25" fill="#2c3e50" />
    <rect x="1150" y="635" width="50" height="5" fill="#7f8c8d" />
    <rect x="1150" y="620" width="50" height="5" fill="#7f8c8d" />
    <circle cx="1220" cy="650" r="15" fill="#2c3e50" />
    <circle cx="1280" cy="650" r="15" fill="#2c3e50" />
  </g>
  
  <!-- Boxes scattered around -->
  <g>
    <rect x="150" y="250" width="30" height="30" fill="#e74c3c" />
    <rect x="480" y="180" width="40" height="40" fill="#3498db" />
    <rect x="750" y="500" width="35" height="35" fill="#2ecc71" />
    <rect x="1080" y="220" width="25" height="25" fill="#f39c12" />
    <rect x="1380" y="480" width="45" height="45" fill="#9b59b6" />
    <rect x="1650" y="350" width="30" height="30" fill="#e74c3c" />
    <rect x="230" y="580" width="40" height="40" fill="#3498db" />
    <rect x="550" y="850" width="35" height="35" fill="#2ecc71" />
    <rect x="870" y="780" width="25" height="25" fill="#f39c12" />
    <rect x="1450" y="920" width="45" height="45" fill="#9b59b6" />
    <rect x="1750" y="680" width="30" height="30" fill="#e74c3c" />
  </g>
  
  <!-- Particle effect -->
  <g fill="rgba(255,255,255,0.3)">
    <circle cx="120" cy="150" r="1.5" />
    <circle cx="350" cy="280" r="2" />
    <circle cx="580" cy="120" r="1" />
    <circle cx="720" cy="400" r="2.5" />
    <circle cx="980" cy="250" r="1.2" />
    <circle cx="1100" cy="180" r="2.2" />
    <circle cx="1350" cy="320" r="1.7" />
    <circle cx="1580" cy="450" r="1.3" />
    <circle cx="1800" cy="220" r="2.1" />
    <circle cx="220" cy="650" r="1.8" />
    <circle cx="450" cy="530" r="1.4" />
    <circle cx="680" cy="780" r="2.3" />
    <circle cx="830" cy="920" r="1.6" />
    <circle cx="1050" cy="690" r="1.9" />
    <circle cx="1280" cy="830" r="1.1" />
    <circle cx="1470" cy="560" r="2.4" />
    <circle cx="1680" cy="720" r="1.5" />
    <circle cx="1850" cy="880" r="2.2" />
  </g>
</svg> 